# xmcd
#
# Track frame offsets:
#	150
#	15905
#	26889
#	42088
#	59455
#	73403
#	86097
#	100403
#	115477
#	127046
#	143286
#	161962
#	177305
#
# Disc length: 2533
#
# Revision: 2
# Processed by: cddbd v1.5.1PL0 Copyright (c) Steve Scherf et al.
# Submitted via: dBpowerAMP V4.0
# Normalized: r0:TRMNUM;r1:TDELIM( - ),TSWAP
#
DISCID=b909e30d
DTITLE=vary - The No.1 Line Dance Album Vol 1
DYEAR=1900
DGENRE=
TTITLE0=Reba McIntire - We'll Waltz In Love Tonight
TTITLE1=Kentucky Headhunters - Redneck Girl
TTITLE2=Sammy Kershaw - Third Rate Romance
TTITLE3=Rick Tippe - Hardwood Stomp
TTITLE4=Mark Wills - Jacob's Ladder
TTITLE5=Scooter Lee - Here Lately
TTITLE6=Terri Clark - Poor Poor Pitiful Me
TTITLE7=Twister Alley - Dance
TTITLE8=Toby Keith - I Don't Understand My Girlfriend
TTITLE9=Shania Twain - Don't Be Stupid
TTITLE10=Kathy Mattea - 455 Rocket
TTITLE11=Billy Ray Cyrus - Achy Breaky Heart
TTITLE12=Wesley Dennis - In The Middle Of A Little Love
EXTD=line dance cd
EXTT0=
EXTT1=
EXTT2=
EXTT3=
EXTT4=
EXTT5=
EXTT6=
EXTT7=
EXTT8=
EXTT9=
EXTT10=
EXTT11=
EXTT12=
PLAYORDER=
